<?xml version="1.0" standalone="no"?>
<!DOCTYPE svg PUBLIC "-//W3C//DTD SVG 20010904//EN"
 "http://www.w3.org/TR/2001/REC-SVG-20010904/DTD/svg10.dtd">
<svg version="1.0" xmlns="http://www.w3.org/2000/svg"
 width="270.000000pt" height="270.000000pt" viewBox="0 0 270.000000 270.000000"
 preserveAspectRatio="xMidYMid meet">
<metadata>
Created by potrace 1.14, written by Peter Selinger 2001-2017
</metadata>
<g transform="translate(0.000000,270.000000) scale(0.100000,-0.100000)"
fill="#000000" stroke="none">
<path d="M0 1350 l0 -1350 1350 0 1350 0 0 1350 0 1350 -1350 0 -1350 0 0
-1350z m584 324 c124 -43 163 -162 81 -253 l-34 -37 29 -17 c83 -49 104 -165
43 -237 -14 -17 -44 -41 -67 -53 -39 -21 -56 -22 -288 -25 l-248 -4 0 321 0
321 218 0 c175 0 228 -3 266 -16z m448 -200 l3 -216 28 -24 c37 -32 87 -32
124 0 l28 24 3 216 3 216 110 0 109 0 0 -195 c0 -106 -5 -217 -11 -245 -17
-80 -64 -139 -144 -180 -62 -32 -75 -35 -154 -35 -115 0 -180 23 -242 85 -71
71 -79 109 -79 362 l0 208 109 0 110 0 3 -216z m785 55 c54 -89 102 -162 108
-163 5 0 52 72 105 161 l95 163 93 0 92 0 0 -320 0 -320 -100 0 -99 0 -3 142
-3 142 -65 -112 -65 -112 -54 2 -54 3 -61 102 c-33 56 -63 102 -66 103 -3 0
-4 -61 -2 -135 l4 -135 -101 0 -101 0 0 320 0 320 89 0 89 0 99 -161z m762
-277 c86 -64 37 -212 -70 -212 -77 0 -129 49 -129 122 0 40 21 73 64 99 37 24
96 20 135 -9z"/>
<path d="M320 1495 l0 -45 75 0 c72 0 76 1 87 26 19 41 -16 64 -98 64 l-64 0
0 -45z"/>
<path d="M320 1250 l0 -50 78 0 c84 0 122 16 122 50 0 34 -38 50 -122 50 l-78
0 0 -50z"/>
</g>
</svg>
